<svg viewBox="0 0 780 180" xmlns="http://www.w3.org/2000/svg" font-family="Georgia, 'Times New Roman', serif">
  <defs>
    <linearGradient id="gold" x1="0%" y1="0%" x2="0%" y2="100%">
      <stop offset="0%"   stop-color="#e8c97a"/>
      <stop offset="50%"  stop-color="#d4a843"/>
      <stop offset="100%" stop-color="#b8860b"/>
    </linearGradient>
  </defs>

  <rect width="780" height="180" rx="12" fill="#0d1117"/>

  <!-- Left columns -->
  <g transform="translate(30, 28)">
    <rect x="-4" y="0"   width="66" height="8"  rx="2"   fill="#c8b89a"/>
    <rect x="0"  y="8"   width="14" height="5"  rx="1"   fill="#a09075"/>
    <rect x="22" y="8"   width="14" height="5"  rx="1"   fill="#a09075"/>
    <rect x="44" y="8"   width="14" height="5"  rx="1"   fill="#a09075"/>
    <rect x="0"  y="13"  width="14" height="80" rx="1.5" fill="#7c6f5b"/>
    <rect x="22" y="13"  width="14" height="80" rx="1.5" fill="#7c6f5b"/>
    <rect x="44" y="13"  width="14" height="80" rx="1.5" fill="#7c6f5b"/>
    <rect x="-2" y="93"  width="18" height="5"  rx="1"   fill="#9d8e7a"/>
    <rect x="20" y="93"  width="18" height="5"  rx="1"   fill="#9d8e7a"/>
    <rect x="42" y="93"  width="18" height="5"  rx="1"   fill="#9d8e7a"/>
    <rect x="-6" y="98"  width="70" height="6"  rx="2"   fill="#8a7a65"/>
    <ellipse cx="29" cy="-3" rx="7" ry="3" fill="#f59e0b" opacity="0.3"/>
    <path d="M26,-10 Q29,-22 32,-10 Q29,-6 26,-10Z" fill="#f59e0b" opacity="0.65"/>
    <path d="M27.5,-8 Q29,-17 30.5,-8 Q29,-5 27.5,-8Z" fill="#fbbf24" opacity="0.95"/>
  </g>

  <!-- Right columns — perfect mirror -->
  <g transform="translate(750, 28) scale(-1, 1)">
    <rect x="-4" y="0"   width="66" height="8"  rx="2"   fill="#c8b89a"/>
    <rect x="0"  y="8"   width="14" height="5"  rx="1"   fill="#a09075"/>
    <rect x="22" y="8"   width="14" height="5"  rx="1"   fill="#a09075"/>
    <rect x="44" y="8"   width="14" height="5"  rx="1"   fill="#a09075"/>
    <rect x="0"  y="13"  width="14" height="80" rx="1.5" fill="#7c6f5b"/>
    <rect x="22" y="13"  width="14" height="80" rx="1.5" fill="#7c6f5b"/>
    <rect x="44" y="13"  width="14" height="80" rx="1.5" fill="#7c6f5b"/>
    <rect x="-2" y="93"  width="18" height="5"  rx="1"   fill="#9d8e7a"/>
    <rect x="20" y="93"  width="18" height="5"  rx="1"   fill="#9d8e7a"/>
    <rect x="42" y="93"  width="18" height="5"  rx="1"   fill="#9d8e7a"/>
    <rect x="-6" y="98"  width="70" height="6"  rx="2"   fill="#8a7a65"/>
    <ellipse cx="29" cy="-3" rx="7" ry="3" fill="#f59e0b" opacity="0.3"/>
    <path d="M26,-10 Q29,-22 32,-10 Q29,-6 26,-10Z" fill="#f59e0b" opacity="0.65"/>
    <path d="M27.5,-8 Q29,-17 30.5,-8 Q29,-5 27.5,-8Z" fill="#fbbf24" opacity="0.95"/>
  </g>

  <text x="390" y="76"  font-size="70" font-weight="bold" letter-spacing="6" fill="url(#gold)" dominant-baseline="middle" text-anchor="middle">PRYTAN</text>
  <text x="390" y="118" font-size="15" fill="#8b949e" letter-spacing="2.5" dominant-baseline="middle" text-anchor="middle">YOUR AI COUNCIL FOR ANY BUSINESS</text>
  <line x1="100" y1="135" x2="680" y2="135" stroke="#30363d" stroke-width="1"/>
  <text x="390" y="155" font-size="12" fill="#6e7681" letter-spacing="0.5" dominant-baseline="middle" text-anchor="middle">16 agents · autonomous · local · zero telemetry</text>
</svg>
